<svg xmlns="http://www.w3.org/2000/svg" width="15.559" height="15.559" viewBox="0 0 15.559 15.559"><defs><style>.a{fill:#878787;}</style></defs><path class="a" d="M10.017,8.028a.343.343,0,0,1,0-.5L15.346,2.2a.767.767,0,0,0,.213-.5.767.767,0,0,0-.213-.5L14.351.213a.767.767,0,0,0-.5-.213.645.645,0,0,0-.5.213L8.028,5.542a.343.343,0,0,1-.5,0L2.2.213A.767.767,0,0,0,1.705,0a.767.767,0,0,0-.5.213l-.995.995a.767.767,0,0,0-.213.5.767.767,0,0,0,.213.5L5.542,7.531a.343.343,0,0,1,0,.5L.213,13.357a.687.687,0,0,0,0,.995l.995.995a.767.767,0,0,0,.5.213.767.767,0,0,0,.5-.213l5.328-5.328a.343.343,0,0,1,.5,0l5.328,5.328a.687.687,0,0,0,.995,0l.995-.995a.687.687,0,0,0,0-.995Z"/></svg>