<svg xmlns="http://www.w3.org/2000/svg" width="18.001" height="18" viewBox="0 0 18.001 18">
  <path id="Subtraction_2" data-name="Subtraction 2" d="M8372-2545h-12a3,3,0,0,1-3-3v-12a3,3,0,0,1,3-3h12a3.005,3.005,0,0,1,3,3v12A3,3,0,0,1,8372-2545Zm-11.043-10.12a.177.177,0,0,0-.124.052l-1.08,1.08a.174.174,0,0,0-.052.124.173.173,0,0,0,.052.124l4.441,4.443a.174.174,0,0,0,.126.051.183.183,0,0,0,.124-.051l7.822-7.823a.18.18,0,0,0,0-.25l-1.08-1.078a.174.174,0,0,0-.125-.052.171.171,0,0,0-.123.052l-6.618,6.619-3.239-3.239A.177.177,0,0,0,8360.956-2555.12Z" transform="translate(-8357 2563)" fill="#f7cd37"/>
</svg>
