<svg xmlns="http://www.w3.org/2000/svg" width="16" height="16" viewBox="0 0 16 16">
  <path id="Path_10212" data-name="Path 10212" d="M13.77-13.607l.125,2.587A7.708,7.708,0,0,0,8-13.754s0,0-.007,0A7.748,7.748,0,0,0,.384-7.443a.377.377,0,0,0-.006.068A.375.375,0,0,0,.753-7H2.286a.376.376,0,0,0,.365-.289A5.5,5.5,0,0,1,7.995-11.5a5.48,5.48,0,0,1,4.562,2.427L9.386-9.221H9.368a.375.375,0,0,0-.375.375h0v1.482a.375.375,0,0,0,.375.375h6.257A.375.375,0,0,0,16-7.364v-6.261A.375.375,0,0,0,15.625-14h-1.48a.375.375,0,0,0-.375.375C13.77-13.619,13.77-13.613,13.77-13.607ZM7.995-.5h0A5.474,5.474,0,0,1,3.432-2.931l3.181.152h.018a.375.375,0,0,0,.375-.375h0V-4.635a.375.375,0,0,0-.375-.375H.375A.375.375,0,0,0,0-4.635v6.26A.375.375,0,0,0,.375,2h1.48a.375.375,0,0,0,.375-.375c0-.006,0-.012,0-.019L2.1-.974A7.708,7.708,0,0,0,7.989,1.754s0,0,.005,0a7.749,7.749,0,0,0,7.611-6.307.377.377,0,0,0,.006-.068A.375.375,0,0,0,15.237-5H13.7a.376.376,0,0,0-.365.289A5.5,5.5,0,0,1,8-.5S8-.5,7.995-.5Z" transform="translate(0 14)"/>
</svg>
